/* XPM */
static char *_21d18a7e2ee4fcccc3b2e19101b4ea8zysUgRtJ6PAE9zYi[] = {
/* columns rows colors chars-per-pixel */
"100 100 89 1 ",
"  c None",
". c #F1CF09",
"X c #F3D807",
"o c #F4D807",
"O c #F4D907",
"+ c #F4DA07",
"@ c #F4DB07",
"# c #F5DC07",
"$ c #F5DD07",
"% c #F5DE06",
"& c #F5DF06",
"* c #F5DE07",
"= c #F6DF06",
"- c #F1D009",
"; c #F1D109",
": c #F1D209",
"> c #F2D208",
", c #F2D308",
"< c #F2D209",
"1 c #F2D309",
"2 c #F1D00A",
"3 c #F1D10A",
"4 c #F1D00B",
"5 c #F1D10B",
"6 c #F2D408",
"7 c #F2D508",
"8 c #F3D508",
"9 c #F3D608",
"0 c #F3D708",
"q c #F3D808",
"w c #F4D808",
"e c #F7E205",
"r c #F7E305",
"t c #F6E006",
"y c #F6E106",
"u c #F6E206",
"i c #F7E206",
"p c #F7E306",
"a c #F7E405",
"s c #F7E505",
"d c #F7E605",
"f c #F8E704",
"g c #F8E605",
"h c #F8E705",
"j c #FAED03",
"k c #FAEE03",
"l c #FAEF03",
"z c #F8E804",
"x c #F8E904",
"c c #F9E904",
"v c #F8E805",
"b c #F9EA04",
"n c #F9EB04",
"m c #F9EC04",
"M c #FAEC04",
"N c #FAED04",
"B c #F7E509",
"V c #FAEF08",
"C c #FBF003",
"Z c #FBF103",
"A c #FBF202",
"S c #FBF302",
"D c #FBF203",
"F c #FBF303",
"G c #FCF302",
"H c #FCF402",
"J c #FCF502",
"K c #FCF503",
"L c #FCF602",
"P c #FDF602",
"I c #FDF702",
"U c #FDF801",
"Y c #FDF901",
"T c #FDFA01",
"R c #FEFA01",
"E c #FEFB01",
"W c #FEFD00",
"Q c #FFFD00",
"! c #FEFC01",
"~ c #FEFD01",
"^ c #FFFE00",
"/ c yellow",
"( c #FFFF01",
") c #FFFE02",
"_ c #FFFF02",
"` c #FFFF03",
"' c #FFFF04",
"] c #FFFF05",
"[ c #FEFD06",
/* pixels */
"                                                                                                    ",
"                                                                                                    ",
"                                                 2)                                                 ",
"                                                 2)                                                 ",
"                                                 2)                                                 ",
"                                                22))                                                ",
"                                                2-))                                                ",
"                                                --))                                                ",
"                                               2--)))                                               ",
"                                               2--)))                                               ",
"                                               ---)))                                               ",
"                                              2---))))                                              ",
"                                              2---))))                                              ",
"                                              ----))))                                              ",
"                                              2---))))                                              ",
"                                             222--)))))                                             ",
"                                             -----)))))                                             ",
"                                             -----)))))                                             ",
"                                            22----))))))                                            ",
"                                            22----))))))                                            ",
"                                            ------))))))                                            ",
"                                           2------)))))))                                           ",
"                                           2------)))))))                                           ",
"                                           2------)))))))                                           ",
"                                          222-----)))))))                                           ",
"                                          22------))))))))                                          ",
"                                          --------))))))))                                          ",
"                                          --------))))))))                                          ",
"                                         22-------)))))))))                                         ",
"                                         22-------)))))))))                                         ",
"                                         2--------)))))))))                                         ",
"                                        2---------))))))))))                                        ",
"                                        ----------))))))))))                                        ",
"                                        ----------))))))))))                                        ",
"                                       2----------)))))))))))                                       ",
"                                       2----------)))))))))))                                       ",
"                                       2----------)))))))))))                                       ",
"                                      22----------))))))))))))                                      ",
" V''''))))))))))))))))))))))))))))))))r2---------2)))))))))))m22.---222222222622252256252222252-..& ",
"  6tH)))))))))))))))))))))))))))))))))E7---------7))))))))))E7-2----22--222-222222222222222222-OnE  ",
"   227fH)))))))))))))))))))))))))))))))H----------))))))))))@-------------------2-----------+zH))   ",
"    2222+aL)))))))))))))))))))))))))))))a---------)))))))))b--------------------2--------+aL))))    ",
"      2----OzH)))))))))))))))))))))))))))O--------))))))))H7------------------------22+zL)))))      ",
"       -----2-&bE))))))))))))))))))))))))H------27))))))))O-------------------2.--2+aSE))))))       ",
"        222------&bE))))))))))))))))))))))a-------)))))))a---------------------.7aS)))))))))        ",
"          -------2.-&m)))))))))))))))))))))+------))))))L---------------------rS))))))))))          ",
"           2----------.&m))))))))))))))))))L------))))))+.-----------------rS))))))))))))           ",
"            -------------2rS))))))))))))))))m-----)))))e---------------2&b))))))))))))))            ",
"              22-------------rS))))))))))))))+---7))))S--------------&S)))))))))))))))              ",
"               2-2------------.2rL)))))))))))E----)))E7----------.+m)))))))))))))))))               ",
"                22-2------------2-7aL)))))))))m-::)))r---------+b)))))))))))))))))))                ",
"                 2-2-----------------7zL)))))))@.:))m-------7aE))))))))))))))))))))                 ",
"                   2----------------:...+aE))))L--)E-----7bE)))))))))))))))))))))                   ",
"                    ---2------------..:.:..+z)))m-)&--7zL)))))))))))))))))))))))                    ",
"                     222------------.:.::.:.--@z)rz7aL)))))))))))))))))))))))))                     ",
"                       2------------.:....:.--2-+zaL)))))))))))))))))))))))))                       ",
"                        ---2-----------------7eSE&m2&mE)))))))))))))))))))))                        ",
"                         --2--------------+rS)))f7)r.-2&mE)))))))))))))))))                         ",
"                           2--22-----2-7rm)))))L26)E7-----emE))))))))))))                           ",
"                            --2.----7rS))))))))722))S-------2&mE))))))))                            ",
"                             22.:7&L))))))))))f-28)))a-2--------&m)))))                             ",
"                               rS))))))))))))S2---))))+.-----------rS                               ",
"                               ))))))))))))))7--27))))H2------------.                               ",
"                              ))))))))))))))r-----)))))b-----------222                              ",
"                              )))))))))))))m------))))))&22----------2                              ",
"                              )))))))))))))7----27))))))H7------------                              ",
"                              ))))))))))))O-------)))))))z----------22                              ",
"                             ))))))))))))m--------))))))))r----------22                             ",
"                             )))))))))))E---------))))))))E------------                             ",
"                             )))))))))))+---------)))))))))S----------2                             ",
"                            )))))))))))z----------))))))))))r.--------22                            ",
"                            ))))))))))L---------27)))))))))))7---------2                            ",
"                            ))))))))))+-----------)))))))))))S----------                            ",
"                           ))))))))))r------------))))))))))))a---------2                           ",
"                           )))))))))S-------------)))))))))))))O--------2                           ",
"                           ))))))))E72------------)))))))))))))H--------2                           ",
"                          )))))))))r--------------))))))))))))))b.------22                          ",
"                          ))))))))S.------------    )))))))))))))O--------                          ",
"                          )))))))E7---------2-2      ))))))))))))E--------                          ",
"                         ))))))))&----------22        ))))))))))))m-------2                         ",
"                         )))))))m-----------2          ))))))))))))&------2                         ",
"                         ))))))H----------2              ))))))))))E7----22                         ",
"                         ))))))&--------22                ))))))))))m-----2                         ",
"                        ))))))b2--------2                  ))))))))))a----22                        ",
"                        )))))L-.----222                      )))))))))7-----                        ",
"                        )))))+-------2                        ))))))))L-----                        ",
"                       )))))a-----22-                          ))))))))a----2                       ",
"                       ))))L------2                             ))))))))+---2                       ",
"                       ))))7..:.22                                ))))))L----                       ",
"                      ))))a-:.:.2                                  ))))))b--22                      ",
"                      )))m--22..                                    ))))))O--2                      ",
"                      ))E7---2                                        ))))E7--                      ",
"                     )))&-22-                                          ))))m222                     ",
"                     ))m.--2                                            ))))r22                     ",
"                     )H7--                                                ))E-2                     ",
"                    ))O22                                                  ))S22                    ",
"                    )b22                                                    ))r2                    ",
"                    E2                                                       ))7                    ",
"                    7                                                          H                    ",
"                   B                                                                                "
};
