/* XPM */
static char *result[] = {
/* columns rows colors chars-per-pixel */
"68 98 129 2 ",
"   c #5C553A",
".  c #625A39",
"X  c #665D38",
"o  c #726634",
"O  c #786A32",
"+  c #7D6E31",
"@  c #7E6F31",
"#  c gray26",
"$  c #434342",
"%  c #444342",
"&  c #464541",
"*  c #484640",
"=  c #494740",
"-  c #4A4840",
";  c #85732F",
":  c #927D2B",
">  c #BE9E1E",
",  c #9D8627",
"<  c #978029",
"1  c #998329",
"2  c #9D8628",
"3  c #A68C25",
"4  c #AC9123",
"5  c #AD9223",
"6  c #AE9222",
"7  c #B49721",
"8  c #C6A41C",
"9  c #CFAA19",
"0  c #D0AB19",
"q  c #D3AE18",
"w  c #DEB615",
"e  c #E9BE11",
"r  c #EBBF11",
"t  c #D5B83D",
"y  c #E6BF21",
"u  c #F0C30F",
"i  c #F1C40F",
"p  c #EFC310",
"a  c #EDC215",
"s  c #EEC314",
"d  c #EEC315",
"f  c #ECC218",
"g  c #F1C410",
"h  c #F0C411",
"j  c #F1C411",
"k  c #F1C512",
"l  c #F1C513",
"z  c #F1C514",
"x  c #F0C515",
"c  c #F1C515",
"v  c #F1C615",
"b  c #F0C516",
"n  c #F1C616",
"m  c #F1C617",
"M  c #F1C618",
"N  c #F2C618",
"B  c #F2C619",
"V  c #F2C71A",
"C  c #F2C71B",
"Z  c #F2C71C",
"A  c #F2C71D",
"S  c #F2C81D",
"D  c #F2C81E",
"F  c #F2C81F",
"G  c #F2C820",
"H  c #F2C821",
"J  c #F2C921",
"K  c #F2C922",
"L  c #F2C923",
"P  c #F2C925",
"I  c #F2CA27",
"U  c #F2CA28",
"Y  c #F2CA2A",
"T  c #F2CB2B",
"R  c #F3CB2B",
"E  c #F2CB2C",
"W  c #F3CB2E",
"Q  c #F3CC2D",
"!  c #F3CC2F",
"~  c #F3CC31",
"^  c #F3CC32",
"/  c #F3CD34",
"(  c #F3CD35",
")  c #F3CE37",
"_  c #F3CE3A",
"`  c #B9AC6D",
"'  c #C6B255",
"]  c #C7B255",
"[  c #CAB452",
"{  c #CBB555",
"}  c #C1B05E",
"|  c #9B9F9D",
" . c #9FA197",
".. c #9DA09A",
"X. c #9DA09B",
"o. c #9FA29D",
"O. c #ADA780",
"+. c #999EA1",
"@. c #9A9EA0",
"#. c #9A9FA2",
"$. c #9B9FA2",
"%. c #9BA0A3",
"&. c #9CA0A1",
"*. c #9CA0A3",
"=. c #9CA1A4",
"-. c #9DA1A4",
";. c #9DA2A4",
":. c #9DA2A5",
">. c #9EA3A5",
",. c #9EA3A6",
"<. c #9FA4A7",
"1. c #A0A4A7",
"2. c #A0A5A8",
"3. c #A1A6A9",
"4. c #A2A6A9",
"5. c #A2A7A9",
"6. c #A2A7AA",
"7. c #A3A7AA",
"8. c #A3A8AA",
"9. c #A4A9AC",
"0. c #A5AAAC",
"q. c #A5AAAD",
"w. c #A6AAAD",
"e. c #A6ABAD",
"r. c #A7ABAE",
"t. c #A8ACAF",
"y. c #A9ADB0",
"u. c #ABAFB2",
"i. c None",
/* pixels */
"i.i.i.i.i.i.i.i.i.i.i.i.i.i.i.i.i.i.i.i.i.i.i.i.i.i.i.i.i.i.t.e.1.#.#.1.e.t.i.i.i.i.i.i.i.i.i.i.i.i.i.i.i.i.i.i.i.i.i.i.i.i.i.i.i.i.i.i.",
"i.i.i.i.i.i.i.i.i.i.i.i.i.i.i.i.i.i.i.i.i.i.i.i.i.i.3.=.%.+.+.+.+.+.+.+.+.+.+.%.=.3.i.i.i.i.i.i.i.i.i.i.i.i.i.i.i.i.i.i.i.i.i.i.i.i.i.i.",
"i.i.i.i.i.i.i.i.i.i.i.i.i.i.i.i.i.i.i.i.i.i.i.r.:.#.+.+.+.+.+.+.+.+.+.+.+.+.+.+.+.+.#.:.r.i.i.i.i.i.i.i.i.i.i.i.i.i.i.i.i.i.i.i.i.i.i.i.",
"i.i.i.i.i.i.i.i.i.i.i.i.i.i.i.i.i.i.i.i.i.w.%.+.+.+.+.+.+.+.+.+.+.+.+.+.+.+.+.+.+.+.+.+.+.%.w.i.i.i.i.i.i.i.i.i.i.i.i.i.i.i.i.i.i.i.i.i.",
"i.i.i.i.i.i.i.i.i.i.i.i.i.i.i.i.i.i.i.i.2.+.+.+.+.+.+.+.+.+.+.+.+.+.+.+.+.+.+.+.+.+.+.+.+.+.+.2.i.i.i.i.i.i.i.i.i.i.i.i.i.i.i.i.i.i.i.i.",
"i.i.i.i.i.i.i.i.i.i.i.i.i.i.i.i.i.i.w.#.+.+.+.+.+.+.+.+.+.+.+.+.+.+.+.+.+.+.+.+.+.+.+.+.+.+.+.+.#.w.i.i.i.i.i.i.i.i.i.i.i.i.i.i.i.i.i.i.",
"i.i.i.i.i.i.i.i.i.i.i.i.i.i.i.i.i.7.+.+.+.+.+.+.+.+.+.+.+.+.+.+.+.+.+.+.+.+.+.+.+.+.+.+.+.+.+.+.+.+.7.i.i.i.i.i.i.i.i.i.i.i.i.i.i.i.i.i.",
"i.i.i.i.i.i.i.i.i.i.i.i.i.i.i.i.8.+.+.+.+.+.+.+.+.+.+.+.+.+.+.=.%.*.*.%.=.+.+.+.+.+.+.+.+.+.+.+.+.+.+.8.i.i.i.i.i.i.i.i.i.i.i.i.i.i.i.i.",
"i.i.i.i.i.i.i.i.i.i.i.i.i.i.i.4.+.+.+.+.+.+.+.+.+.+.+.%.>.6.i.i.i.i.i.i.i.i.6.>.%.+.+.+.+.+.+.+.+.+.+.+.4.i.i.i.i.i.i.i.i.i.i.i.i.i.i.i.",
"i.i.i.i.i.i.i.i.i.i.i.i.i.i.3.+.+.+.+.+.+.+.+.+.+.;.5.i.i.i.i.i.i.i.i.i.i.i.i.i.i.5.;.+.+.+.+.+.+.+.+.+.+.3.i.i.i.i.i.i.i.i.i.i.i.i.i.i.",
"i.i.i.i.i.i.i.i.i.i.i.i.i.8.+.+.+.+.+.+.+.+.+.+.3.i.i.i.i.i.i.i.i.i.i.i.i.i.i.i.i.i.i.3.+.+.+.+.+.+.+.+.+.+.9.i.i.i.i.i.i.i.i.i.i.i.i.i.",
"i.i.i.i.i.i.i.i.i.i.i.i.i.$.+.+.+.+.+.+.+.+.%.u.i.i.i.i.i.i.i.i.i.i.i.i.i.i.i.i.i.i.i.i.u.%.+.+.+.+.+.+.+.+.$.i.i.i.i.i.i.i.i.i.i.i.i.i.",
"i.i.i.i.i.i.i.i.i.i.i.i.,.+.+.+.+.+.+.+.+.:.i.i.i.i.i.i.i.i.i.i.i.i.i.i.i.i.i.i.i.i.i.i.i.i.:.+.+.+.+.+.+.+.+.,.i.i.i.i.i.i.i.i.i.i.i.i.",
"i.i.i.i.i.i.i.i.i.i.i.8.+.+.+.+.+.+.+.+.,.i.i.i.i.i.i.i.i.i.i.i.i.i.i.i.i.i.i.i.i.i.i.i.i.i.i.,.+.+.+.+.+.+.+.+.8.i.i.i.i.i.i.i.i.i.i.i.",
"i.i.i.i.i.i.i.i.i.i.i.=.+.+.+.+.+.+.+.-.i.i.i.i.i.i.i.i.i.i.i.i.i.i.i.i.i.i.i.i.i.i.i.i.i.i.i.i.-.+.+.+.+.+.+.+.=.i.i.i.i.i.i.i.i.i.i.i.",
"i.i.i.i.i.i.i.i.i.i.7.+.+.+.+.+.+.+.$.i.i.i.i.i.i.i.i.i.i.i.i.i.i.i.i.i.i.i.i.i.i.i.i.i.i.i.i.i.i.$.+.+.+.+.+.+.+.7.i.i.i.i.i.i.i.i.i.i.",
"i.i.i.i.i.i.i.i.i.i.:.+.+.+.+.+.+.+.0.i.i.i.i.i.i.i.i.i.i.i.i.i.i.i.i.i.i.i.i.i.i.i.i.i.i.i.i.i.i.0.+.+.+.+.+.+.+.:.i.i.i.i.i.i.i.i.i.i.",
"i.i.i.i.i.i.i.i.i.q.#.+.+.+.+.+.+.=.i.i.i.i.i.i.i.i.i.i.i.i.i.i.i.i.i.i.i.i.i.i.i.i.i.i.i.i.i.i.i.i.=.+.+.+.+.+.+.#.q.i.i.i.i.i.i.i.i.i.",
"i.i.i.i.i.i.i.i.i.2.+.+.+.+.+.+.+.w.i.i.i.i.i.i.i.i.i.i.i.i.i.i.i.i.i.i.i.i.i.i.i.i.i.i.i.i.i.i.i.i.w.+.+.+.+.+.+.+.2.i.i.i.i.i.i.i.i.i.",
"i.i.i.i.i.i.i.i.i.=.+.+.+.+.+.+.%.i.i.i.i.i.i.i.i.i.i.i.i.i.i.i.i.i.i.i.i.i.i.i.i.i.i.i.i.i.i.i.i.i.i.%.+.+.+.+.+.+.=.i.i.i.i.i.i.i.i.i.",
"i.i.i.i.i.i.i.i.i.%.+.+.+.+.+.+.2.i.i.i.i.i.i.i.i.i.i.i.i.i.i.i.i.i.i.i.i.i.i.i.i.i.i.i.i.i.i.i.i.i.i.2.+.+.+.+.+.+.%.i.i.i.i.i.i.i.i.i.",
"i.i.i.i.i.i.i.i.3.+.+.+.+.+.+.+.y.i.i.i.i.i.i.i.i.i.i.i.i.i.i.i.i.i.i.i.i.i.i.i.i.i.i.i.i.i.i.i.i.i.i.y.+.+.+.+.+.+.+.3.i.i.i.i.i.i.i.i.",
"i.i.i.i.i.i.i.i.6.+.+.+.+.+.+.#.i.i.i.i.i.i.i.i.i.i.i.i.i.i.i.i.i.i.i.i.i.i.i.i.i.i.i.i.i.i.i.i.i.i.i.i.#.+.+.+.+.+.+.6.i.i.i.i.i.i.i.i.",
"i.i.i.i.i.i.i.i.<.+.+.+.+.+.+.=.i.i.i.i.i.i.i.i.i.i.i.i.i.i.i.i.i.i.i.i.i.i.i.i.i.i.i.i.i.i.i.i.i.i.i.i.=.+.+.+.+.+.+.<.i.i.i.i.i.i.i.i.",
"i.i.i.i.i.i.i.i.:.+.+.+.+.+.+.=.i.i.i.i.i.i.i.i.i.i.i.i.i.i.i.i.i.i.i.i.i.i.i.i.i.i.i.i.i.i.i.i.i.i.i.i.=.+.+.+.+.+.+.:.i.i.i.i.i.i.i.i.",
"i.i.i.i.i.i.i.i.=.+.+.+.+.+.+.%.i.i.i.i.i.i.i.i.i.i.i.i.i.i.i.i.i.i.i.i.i.i.i.i.i.i.i.i.i.i.i.i.i.i.i.i.%.+.+.+.+.+.+.=.i.i.i.i.i.i.i.i.",
"i.i.i.i.i.i.i.i.%.+.+.+.+.+.+.#.i.i.i.i.i.i.i.i.i.i.i.i.i.i.i.i.i.i.i.i.i.i.i.i.i.i.i.i.i.i.i.i.i.i.i.i.#.+.+.+.+.+.+.%.i.i.i.i.i.i.i.i.",
"i.i.i.i.i.i.i.i.%.+.+.+.+.+.+.#.i.i.i.i.i.i.i.i.i.i.i.i.i.i.i.i.i.i.i.i.i.i.i.i.i.i.i.i.i.i.i.i.i.i.i.i.#.+.+.+.+.+.+.%.i.i.i.i.i.i.i.i.",
"i.i.i.i.i.i.i.i.%.+.+.+.+.+.+.#.i.i.i.i.i.i.i.i.i.i.i.i.i.i.i.i.i.i.i.i.i.i.i.i.i.i.i.i.i.i.i.i.i.i.i.i.#.+.+.+.+.+.+.%.i.i.i.i.i.i.i.i.",
"i.i.i.i.i.i.i.i.%.+.+.+.+.+.+.#.i.i.i.i.i.i.i.i.i.i.i.i.i.i.i.i.i.i.i.i.i.i.i.i.i.i.i.i.i.i.i.i.i.i.i.i.#.+.+.+.+.+.+.%.i.i.i.i.i.i.i.i.",
"i.i.i.i.i.i.i.i.%.+.+.+.+.+.+.#.i.i.i.i.i.i.i.i.i.i.i.i.T P m N v l l v N m P T i.i.i.i.i.i.i.i.i.i.i.i.#.+.+.+.+.+.+.%.i.i.i.i.i.i.i.i.",
"i.i.i.i.i.i.i.i.%.+.+.+.+.+.+.#.i.i.i.i.i.i.i.i.U M z i i i i i i i i i i i i i i z M U i.i.i.i.i.i.i.i.#.+.+.+.+.+.+.%.i.i.i.i.i.i.i.i.",
"i.i.i.i.i.i.i.i.%.+.+.+.+.+.+.#.i.i.i.i.i.R m j i i i i i i i i i i i i i i i i i i i i j m R i.i.i.i.i.#.+.+.+.+.+.+.%.i.i.i.i.i.i.i.i.",
"i.i.i.i.i.i.i.i.%.+.+.+.+.+.+.#.i.i.i.F l i i i i i i i i i i i i i i i i i i i i i i i i i i l F i.i.i.#.+.+.+.+.+.+.%.i.i.i.i.i.i.i.i.",
"i.i.i.i.i.i.i.i.%.+.+.+.+.+.+.&.i.L k i i i i i i i i i i i i i i i i i i i i i i i i i i i i i i k L i.&.+.+.+.+.+.+.%.i.i.i.i.i.i.i.i.",
"i.i.i.i.i.i.i.i.%.+.+.+.+.+. .[ x i i i i i i i i i i i i i i i i i i i i i i i i i i i i i i i i i i x [  .+.+.+.+.+.%.i.i.i.i.i.i.i.i.",
"i.i.i.i.i.i.i.i.%.+.+.+.@.O.t h i i i i i i i i i i i i i i i i i i i i i i i i i i i i i i i i i i i i h t O.@.+.+.+.%.i.i.i.i.i.i.i.i.",
"i.i.i.i.i.i.i.i.%.+.+.| ` y i i i i i i i i i i i i i i i i i i i i i i i i i i i i i i i i i i i i i i i i y ` | +.+.%.i.i.i.i.i.i.i.i.",
"i.i.i.i.i.i.i.i.%.+.X.} f i i i i i i i i i i i i i i i i i i i i i i i i i i i i i i i i i i i i i i i i i i f } X.+.%.i.i.i.i.i.i.i.i.",
"i.i.i.i.i.i.i.i.%...] d i i i i i i i i i i i i i i i i i i i i i i i i i i i i i i i i i i i i i i i i i i i i d ] ..%.i.i.i.i.i.i.i.i.",
"i.i.i.i.i.i.i.i.o.' s i i i i i i i i i i i i i i i i i i i i i i i i i i i i i i i i i i i i i i i i i i i i i i s ' o.i.i.i.i.i.i.i.i.",
"i.i.i.i.i.i.i.i.{ a i i i i i i i i i i i i i i i i i i i i i i i i i i i i i i i i i i i i i i i i i i i i i i i i a { i.i.i.i.i.i.i.i.",
"i.i.i.i.i.i.i.i.b i i i i i i i i i i i i i i i i i i i i i i i i i i i i i i i i i i i i i i i i i i i i i i i i i i b i.i.i.i.i.i.i.i.",
"i.i.i.i.i.i.i.M i i i i i i i i i i i i i i i i i i i i i i i i i i i i i i i i i i i i i i i i i i i i i i i i i i i i M i.i.i.i.i.i.i.",
"i.i.i.i.i.i.P i i i i i i i i i i i i i i i i i i i i i i i i i i i i i i i i i i i i i i i i i i i i i i i i i i i i i i P i.i.i.i.i.i.",
"i.i.i.i.i.) i i i i i i i i i i i i i i i i i i i i i i i i i i i i i i i i i i i i i i i i i i i i i i i i i i i i i i i i ) i.i.i.i.i.",
"i.i.i.i.i.c i i i i i i i i i i i i i i i i i i i i i i i i i i i i i i i i i i i i i i i i i i i i i i i i i i i i i i i i c i.i.i.i.i.",
"i.i.i.i.~ i i i i i i i i i i i i i i i i i i i i i i i i i i i i i i i i i i i i i i i i i i i i i i i i i i i i i i i i i i ~ i.i.i.i.",
"i.i.i.i.i i i i i i i i i i i i i i i i i i i i i i i i i i i i i i i i i i i i i i i i i i i i i i i i i i i i i i i i i i i i i.i.i.i.",
"i.i.i.~ i i i i i i i i i i i i i i i i i i i i i i i i i i i i i i i i i i i i i i i i i i i i i i i i i i i i i i i i i i i i ~ i.i.i.",
"i.i.i.g i i i i i i i i i i i i i i i i i i i i i i i i i i i i i i i i i i i i i i i i i i i i i i i i i i i i i i i i i i i i g i.i.i.",
"i.i.) i i i i i i i i i i i i i i i i i i i i i i i i i i i i i i i i i i i i i i i i i i i i i i i i i i i i i i i i i i i i i i ) i.i.",
"i.i.S i i i i i i i i i i i i i i i i i i i i i i i i i i i i i i i i i i i i i i i i i i i i i i i i i i i i i i i i i i i i i i S i.i.",
"i.i.i i i i i i i i i i i i i i i i i i i i i i i i i i i i i i i i i i i i i i i i i i i i i i i i i i i i i i i i i i i i i i i i i.i.",
"i.P i i i i i i i i i i i i i i i i i i i i i i i i i i i i i i i i i i i i i i i i i i i i i i i i i i i i i i i i i i i i i i i i ( i.",
"i.F i i i i i i i i i i i i i i i i i i i i i i i i i i i i i i i i i i i i i i i i i i i i i i i i i i i i i i i i i i i i i i i i U i.",
"i.k i i i i i i i i i i i i i i i i i i i i i i i i i i i i i i i i i i i i i i i i i i i i i i i i i i i i i i i i i i i i i i i i z i.",
"i.i i i i i i i i i i i i i i i i i i i i i i i i i i i i i i i i u u i i i i i i i i i i i i i i i i i i i i i i i i i i i i i i i i i.",
"! i i i i i i i i i i i i i i i i i i i i i i i i i i i i i p 7 @ X X @ 7 p i i i i i i i i i i i i i i i i i i i i i i i i i i i i i ! ",
"K i i i i i i i i i i i i i i i i i i i i i i i i i i i i r ; = # # # # = ; r i i i i i i i i i i i i i i i i i i i i i i i i i i i i K ",
"A i i i i i i i i i i i i i i i i i i i i i i i i i i i i : $ # # # # # # $ : i i i i i i i i i i i i i i i i i i i i i i i i i i i i A ",
"F i i i i i i i i i i i i i i i i i i i i i i i i i i i w - # # # # # # # # - w i i i i i i i i i i i i i i i i i i i i i i i i i i i F ",
"B i i i i i i i i i i i i i i i i i i i i i i i i i i i 4 # # # # # # # # # # 4 i i i i i i i i i i i i i i i i i i i i i i i i i i i B ",
"l i i i i i i i i i i i i i i i i i i i i i i i i i i i : # # # # # # # # # # : i i i i i i i i i i i i i i i i i i i i i i i i i i i l ",
"z i i i i i i i i i i i i i i i i i i i i i i i i i i i , # # # # # # # # # # , i i i i i i i i i i i i i i i i i i i i i i i i i i i z ",
"C i i i i i i i i i i i i i i i i i i i i i i i i i i i 0 % # # # # # # # # % 0 i i i i i i i i i i i i i i i i i i i i i i i i i i i C ",
"F i i i i i i i i i i i i i i i i i i i i i i i i i i i i o # # # # # # # # o i i i i i i i i i i i i i i i i i i i i i i i i i i i i F ",
"F i i i i i i i i i i i i i i i i i i i i i i i i i i i i q # # # # # # # # q i i i i i i i i i i i i i i i i i i i i i i i i i i i i F ",
"L i i i i i i i i i i i i i i i i i i i i i i i i i i i i > # # # # # # # # > i i i i i i i i i i i i i i i i i i i i i i i i i i i i L ",
"~ i i i i i i i i i i i i i i i i i i i i i i i i i i i i 1 # # # # # # # # 1 i i i i i i i i i i i i i i i i i i i i i i i i i i i i ~ ",
"i.i i i i i i i i i i i i i i i i i i i i i i i i i i i i O # # # # # # # # O i i i i i i i i i i i i i i i i i i i i i i i i i i i i i.",
"i.l i i i i i i i i i i i i i i i i i i i i i i i i i i i   # # # # # # # #   i i i i i i i i i i i i i i i i i i i i i i i i i i i n i.",
"i.G i i i i i i i i i i i i i i i i i i i i i i i i i i e & # # # # # # # # & e i i i i i i i i i i i i i i i i i i i i i i i i i i Y i.",
"i.! i i i i i i i i i i i i i i i i i i i i i i i i i i 8 # # # # # # # # # # 8 i i i i i i i i i i i i i i i i i i i i i i i i i i i.i.",
"i.i.k i i i i i i i i i i i i i i i i i i i i i i i i i 2 # # # # # # # # # # 2 i i i i i i i i i i i i i i i i i i i i i i i i i k i.i.",
"i.i.G i i i i i i i i i i i i i i i i i i i i i i i i i + # # # # # # # # # # + i i i i i i i i i i i i i i i i i i i i i i i i i G i.i.",
"i.i.i.i i i i i i i i i i i i i i i i i i i i i i i i i . # # # # # # # # # # . i i i i i i i i i i i i i i i i i i i i i i i i i i.i.i.",
"i.i.i.m i i i i i i i i i i i i i i i i i i i i i i i p * # # # # # # # # # # * p i i i i i i i i i i i i i i i i i i i i i i i m i.i.i.",
"i.i.i.Q i i i i i i i i i i i i i i i i i i i i i i i 9 # # # # # # # # # # # # 9 i i i i i i i i i i i i i i i i i i i i i i i Q i.i.i.",
"i.i.i.i.n i i i i i i i i i i i i i i i i i i i i i i 3 # # # # # # # # # # # # 3 i i i i i i i i i i i i i i i i i i i i i i n i.i.i.i.",
"i.i.i.i._ i i i i i i i i i i i i i i i i i i i i i i 5 # # # # # # # # # # # # 5 i i i i i i i i i i i i i i i i i i i i i i _ i.i.i.i.",
"i.i.i.i.i.J i i i i i i i i i i i i i i i i i i i i i u 6 < < < < < < < < < < 6 u i i i i i i i i i i i i i i i i i i i i i J i.i.i.i.i.",
"i.i.i.i.i.i.i i i i i i i i i i i i i i i i i i i i i i i i i i i i i i i i i i i i i i i i i i i i i i i i i i i i i i i i i.i.i.i.i.i.",
"i.i.i.i.i.i.^ i i i i i i i i i i i i i i i i i i i i i i i i i i i i i i i i i i i i i i i i i i i i i i i i i i i i i i ^ i.i.i.i.i.i.",
"i.i.i.i.i.i.i.D i i i i i i i i i i i i i i i i i i i i i i i i i i i i i i i i i i i i i i i i i i i i i i i i i i i i D i.i.i.i.i.i.i.",
"i.i.i.i.i.i.i.i.Z i i i i i i i i i i i i i i i i i i i i i i i i i i i i i i i i i i i i i i i i i i i i i i i i i i Z i.i.i.i.i.i.i.i.",
"i.i.i.i.i.i.i.i.i.M i i i i i i i i i i i i i i i i i i i i i i i i i i i i i i i i i i i i i i i i i i i i i i i i M i.i.i.i.i.i.i.i.i.",
"i.i.i.i.i.i.i.i.i.i.M i i i i i i i i i i i i i i i i i i i i i i i i i i i i i i i i i i i i i i i i i i i i i i M i.i.i.i.i.i.i.i.i.i.",
"i.i.i.i.i.i.i.i.i.i.i.V i i i i i i i i i i i i i i i i i i i i i i i i i i i i i i i i i i i i i i i i i i i i V i.i.i.i.i.i.i.i.i.i.i.",
"i.i.i.i.i.i.i.i.i.i.i.i.B i i i i i i i i i i i i i i i i i i i i i i i i i i i i i i i i i i i i i i i i i i B i.i.i.i.i.i.i.i.i.i.i.i.",
"i.i.i.i.i.i.i.i.i.i.i.i.i.H g i i i i i i i i i i i i i i i i i i i i i i i i i i i i i i i i i i i i i i g H i.i.i.i.i.i.i.i.i.i.i.i.i.",
"i.i.i.i.i.i.i.i.i.i.i.i.i.i.~ v i i i i i i i i i i i i i i i i i i i i i i i i i i i i i i i i i i i i v ~ i.i.i.i.i.i.i.i.i.i.i.i.i.i.",
"i.i.i.i.i.i.i.i.i.i.i.i.i.i.i.i.K j i i i i i i i i i i i i i i i i i i i i i i i i i i i i i i i i j K i.i.i.i.i.i.i.i.i.i.i.i.i.i.i.i.",
"i.i.i.i.i.i.i.i.i.i.i.i.i.i.i.i.i.i.D i i i i i i i i i i i i i i i i i i i i i i i i i i i i i i D i.i.i.i.i.i.i.i.i.i.i.i.i.i.i.i.i.i.",
"i.i.i.i.i.i.i.i.i.i.i.i.i.i.i.i.i.i.i.W m j i i i i i i i i i i i i i i i i i i i i i i i i j m W i.i.i.i.i.i.i.i.i.i.i.i.i.i.i.i.i.i.i.",
"i.i.i.i.i.i.i.i.i.i.i.i.i.i.i.i.i.i.i.i.i.i.G n i i i i i i i i i i i i i i i i i i i i n G i.i.i.i.i.i.i.i.i.i.i.i.i.i.i.i.i.i.i.i.i.i.",
"i.i.i.i.i.i.i.i.i.i.i.i.i.i.i.i.i.i.i.i.i.i.i.i.i.H n n i i i i i i i i i i i i n n H i.i.i.i.i.i.i.i.i.i.i.i.i.i.i.i.i.i.i.i.i.i.i.i.i.",
"i.i.i.i.i.i.i.i.i.i.i.i.i.i.i.i.i.i.i.i.i.i.i.i.i.i.i.i.i./ I E C j j C E I / i.i.i.i.i.i.i.i.i.i.i.i.i.i.i.i.i.i.i.i.i.i.i.i.i.i.i.i.i."
};
