/* XPM */
static char *_5708ed8ed184b62cc12952bcb2bf3c74ecNq5ob0JAMETzC[] = {
/* columns rows colors chars-per-pixel */
"94 100 64 1 ",
"  c None",
". c black",
"X c #070800",
"o c #090A00",
"O c gray4",
"+ c #0E1000",
"@ c #121400",
"# c #161900",
"$ c #171A00",
"% c #1B1F00",
"& c gray8",
"* c gray10",
"= c #202500",
"- c #242900",
"; c #292E00",
": c #2C3200",
"> c #2D3300",
", c #363D00",
"< c gray16",
"1 c gray20",
"2 c gray24",
"3 c #3D4500",
"4 c #3F4700",
"5 c #3F4800",
"6 c #444D00",
"7 c #475100",
"8 c #515C00",
"9 c #525D00",
"0 c #566200",
"q c #5A6600",
"w c #5C6800",
"e c #687500",
"r c #40432E",
"t c gray36",
"y c gray40",
"u c #758500",
"i c #768500",
"p c #7E8F00",
"a c #879900",
"s c #818F14",
"d c #90A300",
"f c #99AE00",
"g c #A2B800",
"h c #A6BC00",
"j c #A7BD05",
"k c #B4CC00",
"l c #B8D100",
"z c #B9D100",
"x c #BDD600",
"c c #C2DB00",
"v c #C6E000",
"b c #CBE600",
"n c #CFEB00",
"m c #D4F000",
"M c #D8F500",
"N c #DDFA00",
"B c #E1FF00",
"V c #808080",
"C c gray60",
"Z c gray64",
"A c gray80",
"S c gray88",
"D c #E6E6E6",
"F c white",
/* pixels */
"                                  ..........................                                  ",
"                                  ..........................                                  ",
"                                  ..........................                                  ",
"                                  ..........................                                  ",
"                                  ..........................                                  ",
"                                  ..........................                                  ",
"                                  $$$$$$$$$$$$$$$$$$$$$$$$$$                                  ",
"                    .............$lbbbbbbbbbbbbbbbbbbbbbbbbb0.............                    ",
"                    .............$bBBBBBBBBBBBBBBBBBBBBBBBBBq.............                    ",
"                    .............$bBBBBBBBBBBBBBBBBBBBBBBBBBq.............                    ",
"                    .............$bBBBBBBBBBBBBBBBBBBBBBBBBBq.............                    ",
"                    .............$bBBBBBBBBBBBBBBBBBBBBBBBBBq.............                    ",
"                    .............$bBBBBBBBBBBBBBBBBBBBBBBBBBq.............                    ",
"                    7qqqqqqqqqqqqemBBBBBBBBBBBBBBBBBBBBBBBBBdqqqqqqqqqqqq0                    ",
"              ......aBBBBBBBBBBBBBBBBBBBBBBBBBBBBBBBBBBBBBBBBBBBBBBBBBBBBb$......             ",
"              ......aBBBBBBBBBBBBBBBBBBBBBBBBBBBBBBBBBBBBBBBBBBBBBBBBBBBBb$......             ",
"              ......aBBBBBBBBBBBBBBBBBBBBBBBBBBBBBBBBBBBBBBBBBBBBBBBBBBBBb$......             ",
"              ......aBBBBBBBBBBBBBBBBBBBBBBBBBBBBBBBBBBBBBBBBBBBBBBBBBBBBb$......             ",
"              ......aBBBBBBBBBBBBBBBBBBBBBBBBBBBBBBBBBBBBBBBBBBBBBBBBBBBBb$......             ",
"              ......aBBBBBBBBBBBBBBBBBBBBBBBBBBBBBBBBBBBBBBBBBBBBBBBBBBBBb$......             ",
"              aaaaaaxBBBBBBBBBBBBBBBBBBBBBBBBBBBBBBBBBBBBBBBBBBBBBBBBBBBBMdaaaaai......       ",
"       ......6BBBBBBBBBBBBBBBBBBBBBBBBBBBBBBBBBBBBBBBBBBBBBBBBBBBBBBBBBBBBBBBBBBk......       ",
"       ......6BBBBBBBBBBBBBBBBBBBBBBBBBBBBBBBBBBBBBBBBBBBBBBBBBBBBBBBBBBBBBBBBBBk......       ",
"       ......6BBBBBBBBBBBBBBBBBBBBBBBBBBBBBBBBBBBBBBBBBBBBBBBBBBBBBBBBBBBBBBBBBBk......       ",
"       ......6BBBBBBBBBBBBBBBBBBBBBBBBBBBBBBBBBBBBBBBBBBBBBBBBBBBBBBBBBBBBBBBBBBk......       ",
"       ......6BBBBBBBBBBBBBBBBBBBBBBBBBBBBBBBBBBBBBBBBBBBBBBBBBBBBBBBBBBBBBBBBBBk......       ",
"       ......6BBBBBBBBBBBBBBBBBBBBBBBBBBBBBBBBBBBBBBBBBBBBBBBBBBBBBBBBBBBBBBBBBBk......       ",
"       ......6BBBBBBBBBBBBBBBBBBBBBBBBBBBBBBBBBBBBBBBBBBBBBBBBBBBBBBBBBBBBBBBBBBk......       ",
"       ......6BBBBBBBBBBBBBBBBBBBBBBBBBBBBBBBBBBBBBBBBBBBBBBBBBBBBBBBBBBBBBBBBBBk......       ",
"       ......6BBBBBBBBBBBBBBBBBBBBBBBBBBBBBBBBBBBBBBBBBBBBBBBBBBBBBBBBBBBBBBBBBBk......       ",
"       ......6BBBBBBBBBBBBBBBBBBBBBBBBBBBBBBBBBBBBBBBBBBBBBBBBBBBBBBBBBBBBBBBBBBk......       ",
"       ......6BBBBBBBBBBBBBBBBBBBBBBBBBBBBBBBBBBBBBBBBBBBBBBBBBBBBBBBBBBBBBBBBBBk......       ",
"       ......6BBBBBBBBBBBBBBBBBBBBBBBBBBBBBBBBBBBBBBBBBBBBBBBBBBBBBBBBBBBBBBBBBBk......       ",
"       ......6BBBBBBBBBBBBBBBBBBBBBBBBBBBBBBBBBBBBBBBBBBBBBBBBBBBBBBBBBBBBBBBBBBk.......      ",
"       ......6BBBBBBBBBBBBBBBBBBBBBBBBBBBBBBBBBBBBBBBBBBBBBBBBBBBBBBBBBBBBBBBBBBk.............",
"       ......6BBBBBBBBBBBBBBBBBBBBBBBBBBBBBBBBBBBBBBBBBBBBBBBBBBBBBBBBBBBBBBBBBBk.............",
"       ......6BBBBBBBBBBBBBBBBBBBBBBBBBBBBBBBBBBBBBBBBBBBBBBBBBBBBBBBBBBBBBBBBBBk.............",
"       ......6BBBBBBBBBBBBBBBBBBBBBBBBBBBBBBBBBBBBBBBBBBBBBBBBBBBBBBBBBBBBBBBBBBk.............",
"       ......6BBBBBBBBBBBBBBBBBBBBBBBBBBBBBBBBBBBBBBBBBBBBBBBBBBBBBBBBBBBBBBBBBBk.............",
"       ......6BBBBBBBBBBBBBBBBBBBBBBBBBBBBBBBBBBBBBBBBBBBBBBBBBBBBBBBBBBBBBBBBBBk.............",
"       ......3bbbbbbbbbbbbbbbbbbbbbbbbbbbbbbbbbbbbbbbbbbbbbbbbbbbbbbbbbbbbbbbbbbg.............",
".............X$$$$$$$$$$$$$$$$$$$$$$$$$$$$$$$$$$$$$$$$$$$$$$$$$$$$$$$$$$$$$$$$$$@.............",
"..............................................................................................",
"..............................................................................................",
"..............................................................................................",
"..............................................................................................",
"..............................................................................................",
"......o8qqqqq@.....Otyyyyyyyyyyyy2....................<yyyyyyyyyyyyy1............-qqqqq-......",
"......$bBBBBB>.....*DFFFFFFFFFFFFC....................yFFFFFFFFFFFFFV............qBBBBBq......",
"......$bBBBBB>.....*DFFFFFFFFFFFFC....................yFFFFFFFFFFFFFV............qBBBBBq......",
"......$bBBBBB>.....*DFFFFFFFFFFFFC....................yFFFFFFFFFFFFFV............qBBBBBq......",
"......$bBBBBB>.....*DFFFFFFFFFFFFC....................yFFFFFFFFFFFFFV............qBBBBBq......",
"......$bBBBBB>.....*DFFFFFFFFFFFFC....................yFFFFFFFFFFFFFV............qBBBBBq......",
"......$bBBBBB>.....*DFFFFFFFFFFFFC....................yFFFFFFFFFFFFFV............qBBBBBq......",
"......$bBBBBB>.....*DFFFFFSyyyyyy2...........%a,......yFFFFFFZyyyyyy1............qBBBBBq......",
"......$bBBBBB>.....*DFFFFFA..................>Bq......yFFFFFFy...................qBBBBBq......",
"......$bBBBBB>.....*DFFFFFA..................>Bq......yFFFFFFy...................qBBBBBq......",
"......$bBBBBB>.....*DFFFFFA..................>Bq......yFFFFFFy...................qBBBBBq......",
"......$bBBBBB>.....*DFFFFFA..................>Bq......yFFFFFFy...................qBBBBBq......",
"......$bBBBBB>.....*DFFFFFA..................>Bq......yFFFFFFy...................qBBBBBq......",
"......$bBBBBB>.....*DFFFFFA..................>Bq......yFFFFFFy...................qBBBBBq......",
"......$bBBBBBxkkkkkjr11111<.............dkkkkxBvkkkkkks111111&............-kkkkkkvBBBBBq......",
"......$bBBBBBBBBBBBb$...................kBBBBBBBBBBBBBa...................>BBBBBBBBBBBBq......",
"......$bBBBBBBBBBBBb$...................kBBBBBBBBBBBBBa...................>BBBBBBBBBBBBq......",
"......$bBBBBBBBBBBBb$...................kBBBBBBBBBBBBBa...................>BBBBBBBBBBBBq......",
"......$bBBBBBBBBBBBb$...................kBBBBBBBBBBBBBa...................>BBBBBBBBBBBBq......",
"......$bBBBBBBBBBBBb$...................kBBBBBBBBBBBBBa...................>BBBBBNbbbbbb8......",
"......$hkkkkkcBBBBBn5>>>>>>>>>>>>>>>>>>>xBBBBBBBBBBBBBf>>>>>>>>>>>>>>>>>>>8BBBBBl$$$$$$+      ",
"       ......6BBBBBBBBBBBBBBBBBBBBBBBBBBBBBBBBBBBBBBBBBBBBBBBBBBBBBBBBBBBBBBBBBBk......       ",
"       ......6BBBBBBBBBBBBBBBBBBBBBBBBBBBBBBBBBBBBBBBBBBBBBBBBBNbbbbbbmBBBBBBBBBk......       ",
"       ......6BBBBBBBBBBBBBBBBBBBBBBBBBBBBBBBBBBBBBBBBBBBBBBBBBl$$$$$$eBBBBBBBBBk......       ",
"       ......6BBBBBBBBBBBBBBBBBBBBBBBBBBBBBBBBBBBBBBBBBBBBBBBBBk......qBBBBBBBBBk......       ",
"       ......6BBBBBBBBBBBBBBBBBBBBBBBBBBBBBBBBBBBBBBBBBBBBBBBBBk......qBBBBBBBBBk......       ",
"       ......6BBBBBBBBBBBBBBBBBBBBBBBBBBBBBBBBBBBBBBBBBBBBBBBBBk......qBBBBBBBBBk......       ",
"       ......6BBBBBBBBBBBBBBBBBBBBBBBBBBBBBBBBBBBBBBBBBBBBBBBBBk......qBBBBBBBBBk......       ",
"       ......6BBBBBBBBBBBBBBBBBBBBBBBBBBBBBBBBBBBBBBBBBBBBBBBBBk......qBBBBBBBBBk......       ",
"       ......6BBBBBBBBBBBBBBBBfaaaaaaaaaaaaaaaaaaaaaaaaaaaaaaaapqqqqqqdBBBBBBBBBk......       ",
"       ......6BBBBBBBBBBBBBBBB>................................>BBBBBBBBBBBBBBBBk......       ",
"       ......6BBBBBBBBBBBBBBBB>................................>BBBBBBBBBBBBBBBBk......       ",
"       ......6BBBBBBBBBBBBBBBB>................................>BBBBBBBBBBBBBBBBk......       ",
"       ......3kkkkkknBBBBBBBBB>................................>BBBBBBBBBmeqqqqw8             ",
"              ......aBBBBBBBBB>................................>BBBBBBBBBb$......             ",
"              ......aBBBBBBBBB>................................>BBBBBBBBBb$......             ",
"              ......aBBBBBBBBBfaaaaaaaaaaaaaaaaaaaaaaaaaaaaaaaafBBBBBBBBBb$......             ",
"              ......aBBBBBBBBBBBBBBBBBBBBBBBBBBBBBBBBBBBBBBBBBBBBBBBBBBBBb$......             ",
"              ......aBBBBBBBBBBBBBBBBBBBBBBBBBBBBBBBBBBBBBBBBBBBBBBBBBBBBb$......             ",
"              ......aBBBBBBBBBBBBBBBBBBBBBBBBBBBBBBBBBBBBBBBBBBBBBBBBBBBBb$......             ",
"              ......=>>>>>>>>>>>>iBBBBBBBBBBBBBBBBBBBBBBBBBBi>>>>>>>>>>>>>                    ",
"                    .............qBBBBBBBBBBBBBBBBBBBBBBBBBBq.............                    ",
"                    .............qBBBBBBBBBBBBBBBBBBBBBBBBBBq.............                    ",
"                    .............qBBBBBBBBBBBBBBBBBBBBBBBBBBq.............                    ",
"                    .............qBBBBBBBBBBBBBBBBBBBBBBBBBBq.............                    ",
"                    .............qBBBBBBBBBBBBBBBBBBBBBBBBBBq.............                    ",
"                     ............>wqqqqqqqqqqqqqqqqqqqqqqqqq;.............                    ",
"                                  ..........................                                  ",
"                                  ..........................                                  ",
"                                  ..........................                                  ",
"                                  ..........................                                  ",
"                                  ..........................                                  ",
"                                  ..........................                                  "
};
